<svg xmlns="http://www.w3.org/2000/svg" viewBox="0 0 1100 840" font-family="system-ui, -apple-system, 'Segoe UI', sans-serif" role="img" aria-labelledby="archTitle">
  <title id="archTitle">rust-scout আর্কিটেকচার: অ্যাপ / ডেটা চুক্তি / কোর / ড্রাইভার / স্টোরেজ</title>
  <defs>
    <marker id="arrow" viewBox="0 0 10 10" refX="9" refY="5" markerWidth="7" markerHeight="7" orient="auto-start-reverse">
      <path d="M 0 0 L 10 5 L 0 10 z" fill="#64748b"/>
    </marker>
    <style>
      .title { font-size: 26px; font-weight: 700; fill: #0f172a; }
      .sub   { font-size: 13px; fill: #64748b; }
      .layer { fill: #e2e8f0; opacity: 0.35; }
      .box   { fill: #ffffff; stroke: #2563eb; stroke-width: 1.5; }
      .box-core { stroke: #2563eb; }
      .box-mem  { stroke: #10b981; }
      .box-http { stroke: #2563eb; }
      .box-db   { stroke: #d97706; }
      .box-tcp  { stroke: #8b5cf6; }
      .box-null { stroke: #94a3b8; }
      .box-data { stroke: #f59e0b; }
      .name  { font-size: 14px; font-weight: 600; fill: #0f172a; }
      .name-s{ font-size: 12.5px; font-weight: 600; fill: #0f172a; }
      .desc  { font-size: 11px; fill: #475569; }
      .desc-s{ font-size: 10.5px; fill: #64748b; }
      .lbl   { font-size: 12px; fill: #64748b; font-weight: 600; }
      .ctag  { font-size: 10.5px; font-weight: 700; }
      .mem   { fill: #10b981; }
      .http  { fill: #2563eb; }
      .db    { fill: #d97706; }
      .tcp   { fill: #8b5cf6; }
      .null  { fill: #64748b; }
      .mono  { font-family: ui-monospace, SFMono-Regular, Menlo, monospace; }
    </style>
  </defs>

  <text x="550" y="42" text-anchor="middle" class="title">rust-scout আর্কিটেকচার</text>
  <text x="550" y="66" text-anchor="middle" class="sub">Scout ধাঁচের পূর্ণ-পাঠ্য অনুসন্ধান অ্যাবস্ট্রাকশন — এক Engine trait, আট ড্রাইভার, কোড ব্যাকএন্ড জানে না</text>

  <!-- ==================== অ্যাপ স্তর ==================== -->
  <rect x="40" y="95" width="1020" height="70" rx="10" class="layer"/>
  <text x="60" y="118" class="lbl">অ্যাপ স্তর (Application)</text>
  <rect x="60" y="126" width="470" height="26" rx="6" class="box"/>
  <text x="295" y="143" text-anchor="middle" class="name">কলকারী কোড (async / await)</text>
  <rect x="560" y="126" width="480" height="26" rx="6" class="box"/>
  <text x="800" y="143" text-anchor="middle" class="name">ব্যবসায়িক মডেল Searchable / SearchableStore</text>

  <!-- ==================== ডেটা চুক্তি স্তর ==================== -->
  <rect x="40" y="185" width="1020" height="70" rx="10" class="layer"/>
  <text x="60" y="208" class="lbl">ডেটা চুক্তি স্তর (serde JSON) — ড্রাইভার-নিরপেক্ষ</text>
  <rect x="60" y="216" width="300" height="26" rx="6" class="box"/>
  <text x="210" y="233" text-anchor="middle" class="name">SearchBuilder (চেইন কোয়েরি)</text>
  <rect x="390" y="216" width="300" height="26" rx="6" class="box"/>
  <text x="540" y="233" text-anchor="middle" class="name">SearchDocument (লেখা)</text>
  <rect x="720" y="216" width="300" height="26" rx="6" class="box"/>
  <text x="870" y="233" text-anchor="middle" class="name">SearchResult / SearchHit (পড়া)</text>

  <!-- ==================== কোর স্তর ==================== -->
  <rect x="40" y="275" width="1020" height="150" rx="10" class="layer"/>
  <text x="60" y="298" class="lbl">কোর স্তর (Core)</text>
  <rect x="60" y="306" width="300" height="104" rx="8" class="box box-core"/>
  <text x="210" y="330" text-anchor="middle" class="name">EngineManager (ফ্যাসাড)</text>
  <text x="210" y="350" text-anchor="middle" class="desc">ScoutConfig.driver অনুযায়ী বিতরণ ও ক্যাশ</text>
  <text x="210" y="368" text-anchor="middle" class="desc">কোল্ড স্টার্টে একবারই তৈরি (Mutex)</text>
  <text x="210" y="390" text-anchor="middle" class="desc mono">engine() -&gt; Arc&lt;dyn Engine&gt;</text>

  <rect x="390" y="306" width="650" height="104" rx="8" class="box box-core"/>
  <text x="715" y="330" text-anchor="middle" class="name">Engine trait — একমাত্র সন্ধিস্থল</text>
  <text x="715" y="350" text-anchor="middle" class="desc">8 আবশ্যক: update · delete · search · paginate · map_ids · flush · create_index · delete_index</text>
  <text x="715" y="368" text-anchor="middle" class="desc">5 ডিফল্টসহ: delete_in · update_bulk · delete_bulk · soft_delete · reindex</text>
  <text x="715" y="390" text-anchor="middle" class="desc mono">async EngineFuture&lt;T&gt; থেকে ফেরে, Send + Sync</text>

  <line x1="210" y1="306" x2="210" y2="275" stroke="#64748b" stroke-width="1.5" marker-end="url(#arrow)"/>
  <line x1="360" y1="358" x2="390" y2="358" stroke="#64748b" stroke-width="1.5" marker-end="url(#arrow)"/>
  <line x1="715" y1="410" x2="715" y2="440" stroke="#64748b" stroke-width="1.5" marker-end="url(#arrow)"/>

  <!-- ==================== ড্রাইভার স্তর (পরিবহন অনুযায়ী চার দল) ==================== -->
  <rect x="40" y="440" width="1020" height="210" rx="10" class="layer"/>
  <text x="60" y="462" class="lbl">ড্রাইভার স্তর (Drivers) — পরিবহন অনুযায়ী, feature-আবদ্ধ</text>

  <!-- দল A: প্রসেসের ভিতরে -->
  <text x="60" y="484" class="ctag mem">A · প্রসেসের ভিতরে (ডিফল্ট, শূন্য নির্ভরতা)</text>
  <rect x="60" y="492" width="230" height="150" rx="8" class="box box-mem"/>
  <text x="76" y="516" class="name">CollectionEngine</text>
  <text x="76" y="538" class="desc">HashMap&lt;index, docs&gt;</text>
  <text x="76" y="556" class="desc">সিরিয়ালাইজড সাবস্ট্রিং মিল</text>
  <text x="76" y="574" class="desc">matches() / sort_hits() ইন-মেমোরি</text>
  <text x="76" y="592" class="desc">flush no-op, লেখা সঙ্গে সঙ্গে দৃশ্যমান</text>
  <text x="76" y="616" class="desc-s mono">ScoutConfig::collection()</text>
  <text x="76" y="634" class="desc-s">feature: অন্তর্নির্মিত</text>

  <!-- দল B: HTTP REST -->
  <text x="310" y="484" class="ctag http">B · HTTP REST (reqwest)</text>
  <rect x="310" y="492" width="230" height="33" rx="7" class="box box-http"/>
  <text x="324" y="513" class="name-s">ElasticsearchEngine</text>
  <text x="528" y="513" text-anchor="end" class="desc-s">ES / OS</text>
  <rect x="310" y="531" width="230" height="33" rx="7" class="box box-http"/>
  <text x="324" y="552" class="name-s">MeilisearchEngine</text>
  <text x="528" y="552" text-anchor="end" class="desc-s">:7700</text>
  <rect x="310" y="570" width="230" height="33" rx="7" class="box box-http"/>
  <text x="324" y="591" class="name-s">TypesenseEngine</text>
  <text x="528" y="591" text-anchor="end" class="desc-s">:8108</text>
  <rect x="310" y="609" width="230" height="33" rx="7" class="box box-http"/>
  <text x="324" y="630" class="name-s">AlgoliaEngine</text>
  <text x="528" y="630" text-anchor="end" class="desc-s">ম্যানেজড ক্লাউড</text>

  <!-- দল C: স্থানীয় ফাইল -->
  <text x="560" y="484" class="ctag db">C · স্থানীয় ফাইল</text>
  <rect x="560" y="492" width="230" height="150" rx="8" class="box box-db"/>
  <text x="576" y="516" class="name">DatabaseEngine</text>
  <text x="576" y="538" class="desc">SQLite টেবিল scout_documents</text>
  <text x="576" y="556" class="desc">LIKE মোটা + ইন-মেমোরি সূক্ষ্ম</text>
  <text x="576" y="574" class="desc">total SQL স্তরের গণনা</text>
  <text x="576" y="592" class="desc">পেজিনেশন hits-কেই ধরে</text>
  <text x="576" y="616" class="desc-s mono">ScoutConfig::database(..)</text>
  <text x="576" y="634" class="desc-s">feature: database</text>

  <!-- দল D: নেটিভ TCP / নো-অপ -->
  <text x="810" y="484" class="ctag tcp">D · নেটিভ TCP / নো-অপ</text>
  <rect x="810" y="492" width="230" height="72" rx="8" class="box box-tcp"/>
  <text x="826" y="516" class="name">XunSearchEngine</text>
  <text x="826" y="536" class="desc">xunsearchd বাইনারি প্রোটোকল</text>
  <text x="826" y="553" class="desc">প্রতি অপারেশনে একটি ছোট সংযোগ</text>
  <rect x="810" y="572" width="230" height="70" rx="8" class="box box-null"/>
  <text x="826" y="596" class="name">NullEngine</text>
  <text x="826" y="616" class="desc">লেখা ফেলে দেয়, সর্বদা খালি</text>
  <text x="826" y="633" class="desc">টেস্ট / অনুসন্ধান বন্ধ</text>

  <!-- ==================== স্টোরেজ স্তর ==================== -->
  <rect x="40" y="672" width="1020" height="140" rx="10" class="layer"/>
  <text x="60" y="694" class="lbl">স্টোরেজ ও পরিবহন (Storage / Transport)</text>

  <rect x="60" y="706" width="230" height="88" rx="8" class="box box-data"/>
  <text x="175" y="732" text-anchor="middle" class="name">প্রসেসের ভিতরে</text>
  <text x="175" y="754" text-anchor="middle" class="desc">HashMap&lt;index, Vec&lt;doc&gt;&gt;</text>
  <text x="175" y="772" text-anchor="middle" class="desc">Mutex সুরক্ষিত, প্রসেস শেষে হারায়</text>

  <rect x="310" y="706" width="230" height="88" rx="8" class="box box-data"/>
  <text x="425" y="732" text-anchor="middle" class="name">অনুসন্ধান সার্ভার ক্লাস্টার</text>
  <text x="425" y="754" text-anchor="middle" class="desc">ES / OpenSearch · Meilisearch</text>
  <text x="425" y="772" text-anchor="middle" class="desc">Typesense · Algolia ক্লাউড</text>

  <rect x="560" y="706" width="230" height="88" rx="8" class="box box-data"/>
  <text x="675" y="732" text-anchor="middle" class="name">SQLite ফাইল</text>
  <text x="675" y="754" text-anchor="middle" class="desc">স্থানীয় .db, আপনার ডেটাবেসের পাশে</text>
  <text x="675" y="772" text-anchor="middle" class="desc">sqlx + runtime-tokio</text>

  <rect x="810" y="706" width="230" height="88" rx="8" class="box box-data"/>
  <text x="925" y="732" text-anchor="middle" class="name">xunsearchd প্রসেস</text>
  <text x="925" y="754" text-anchor="middle" class="desc">8383 ইনডেক্স / 8384 অনুসন্ধান</text>
  <text x="925" y="772" text-anchor="middle" class="desc">NullEngine: কোনো স্টোরেজ নেই</text>

  <!-- দল → স্টোরেজ সংযোগ -->
  <line x1="175" y1="642" x2="175" y2="706" stroke="#64748b" stroke-width="1.5" marker-end="url(#arrow)"/>
  <line x1="425" y1="642" x2="425" y2="706" stroke="#64748b" stroke-width="1.5" marker-end="url(#arrow)"/>
  <line x1="675" y1="642" x2="675" y2="706" stroke="#64748b" stroke-width="1.5" marker-end="url(#arrow)"/>
  <line x1="925" y1="642" x2="925" y2="706" stroke="#64748b" stroke-width="1.5" marker-end="url(#arrow)"/>

  <!-- অ্যাপ → চুক্তি -->
  <line x1="295" y1="152" x2="295" y2="185" stroke="#64748b" stroke-width="1.5" marker-end="url(#arrow)"/>
</svg>
