<svg xmlns="http://www.w3.org/2000/svg" viewBox="0 0 1100 600" font-family="system-ui, -apple-system, 'Segoe UI', sans-serif" role="img" aria-labelledby="featTitle">
  <title id="featTitle">rust-scout বৈশিষ্ট্য ডিজাইন: ১২টি সক্ষমতা, সবই এক Engine trait থেকে</title>
  <defs>
    <style>
      .title { font-size: 26px; font-weight: 700; fill: #0f172a; }
      .sub   { font-size: 13px; fill: #64748b; }
      .card  { fill: #ffffff; stroke: #e2e8f0; stroke-width: 1.5; }
      .name  { font-size: 14px; font-weight: 600; fill: #0f172a; }
      .desc  { font-size: 11px; fill: #475569; }
      .api   { font-size: 10px; fill: #2563eb; font-family: ui-monospace, SFMono-Regular, Menlo, monospace; }
      .ico   { fill: #dbeafe; stroke: #2563eb; stroke-width: 1.2; }
      .ico-t { font-size: 17px; font-weight: 700; fill: #2563eb; }
      .n     { font-size: 10px; font-weight: 700; fill: #94a3b8; }
    </style>
  </defs>

  <text x="550" y="42" text-anchor="middle" class="title">বৈশিষ্ট্য ডিজাইন</text>
  <text x="550" y="66" text-anchor="middle" class="sub">১২টি সক্ষমতা — কোয়েরি, ফিল্টার, সাজানো, পেজিনেশন, জীবনচক্র, বাল্ক, ড্রাইভার, নিরাপত্তা — সবই এক Engine trait থেকে</text>

  <!-- ========== সারি ১: কোয়েরি নির্মাণ ========== -->
  <rect x="40" y="100" width="240" height="142" rx="10" class="card"/>
  <rect x="58" y="116" width="36" height="36" rx="8" class="ico"/>
  <text x="76" y="140" text-anchor="middle" class="ico-t">Q</text>
  <text x="104" y="132" class="name">চেইন কোয়েরি</text>
  <text x="104" y="150" class="desc">কোয়েরি ও সম্পাদন আলাদা</text>
  <text x="58" y="182" class="desc">আগে SearchBuilder গড়ুন,</text>
  <text x="58" y="198" class="desc">তারপর একবার async চালান।</text>
  <text x="58" y="226" class="api">SearchBuilder::new(q)</text>

  <rect x="300" y="100" width="240" height="142" rx="10" class="card"/>
  <rect x="318" y="116" width="36" height="36" rx="8" class="ico"/>
  <text x="336" y="140" text-anchor="middle" class="ico-t">T</text>
  <text x="364" y="132" class="name">পূর্ণ-পাঠ্য অনুসন্ধান</text>
  <text x="364" y="150" class="desc">খালি স্ট্রিং = সব মেলে</text>
  <text x="318" y="182" class="desc">ES query_string সিনট্যাক্স</text>
  <text x="318" y="198" class="desc">(ক্ষেত্র:মান / ফাজি / AND)</text>
  <text x="318" y="226" class="api">query: "rust" · "title:rust"</text>

  <rect x="560" y="100" width="240" height="142" rx="10" class="card"/>
  <rect x="578" y="116" width="36" height="36" rx="8" class="ico"/>
  <text x="596" y="140" text-anchor="middle" class="ico-t">=</text>
  <text x="624" y="132" class="name">নিখুঁত ফিল্টার</text>
  <text x="624" y="150" class="desc">সমতা মিল</text>
  <text x="578" y="182" class="desc">সংখ্যা / বুলিয়ান / স্ট্রিং</text>
  <text x="578" y="198" class="desc">JSON টাইপে কঠোর তুলনা।</text>
  <text x="578" y="226" class="api">.where_field("status", "ok")</text>

  <rect x="820" y="100" width="240" height="142" rx="10" class="card"/>
  <rect x="838" y="116" width="36" height="36" rx="8" class="ico"/>
  <text x="856" y="140" text-anchor="middle" class="ico-t">∈</text>
  <text x="884" y="132" class="name">সেট ফিল্টার</text>
  <text x="884" y="150" class="desc">IN / NOT IN</text>
  <text x="838" y="182" class="desc">একসাথে চলে; খালি IN</text>
  <text x="838" y="198" class="desc">কোনো নথির সাথে মেলে না।</text>
  <text x="838" y="226" class="api">.where_in("tags", [..])</text>

  <!-- ========== সারি ২: ফলাফল প্রক্রিয়া ========== -->
  <rect x="40" y="257" width="240" height="142" rx="10" class="card"/>
  <rect x="58" y="273" width="36" height="36" rx="8" class="ico"/>
  <text x="76" y="297" text-anchor="middle" class="ico-t">⇅</text>
  <text x="104" y="289" class="name">বহু-ক্ষেত্র সাজানো</text>
  <text x="104" y="307" class="desc">asc / desc একসাথে চলে</text>
  <text x="58" y="339" class="desc">টাইপ-আন্ত তুলনায় ক্রম নিশ্চিত;</text>
  <text x="58" y="355" class="desc">সাজানো ছাড়া id-তে স্থির।</text>
  <text x="58" y="383" class="api">.order_by("created_at", true)</text>

  <rect x="300" y="257" width="240" height="142" rx="10" class="card"/>
  <rect x="318" y="273" width="36" height="36" rx="8" class="ico"/>
  <text x="336" y="297" text-anchor="middle" class="ico-t">P</text>
  <text x="364" y="289" class="name">পেজিনেশন</text>
  <text x="364" y="307" class="desc">অফসেট + পৃষ্ঠা, দুই নিয়ম</text>
  <text x="318" y="339" class="desc">take / skip অফসেট কর্তন;</text>
  <text x="318" y="355" class="desc">paginate পৃষ্ঠা থেকে (১ থেকে)।</text>
  <text x="318" y="383" class="api">engine.paginate(&amp;b, page, per)</text>

  <rect x="560" y="257" width="240" height="142" rx="10" class="card"/>
  <rect x="578" y="273" width="36" height="36" rx="8" class="ico"/>
  <text x="596" y="297" text-anchor="middle" class="ico-t">I</text>
  <text x="624" y="289" class="name">একাধিক ইনডেক্স</text>
  <text x="624" y="307" class="desc">নথি-স্তরের রাউটিং</text>
  <text x="578" y="339" class="desc">লেখা doc.index-এ যায়,</text>
  <text x="578" y="355" class="desc">ডিফল্ট "default" ইনডেক্সে।</text>
  <text x="578" y="383" class="api">.within("books") · doc.index</text>

  <rect x="820" y="257" width="240" height="142" rx="10" class="card"/>
  <rect x="838" y="273" width="36" height="36" rx="8" class="ico"/>
  <text x="856" y="297" text-anchor="middle" class="ico-t">S</text>
  <text x="884" y="289" class="name">সফট ডিলিট</text>
  <text x="884" y="307" class="desc">ক্ষেত্র: __soft_deleted</text>
  <text x="838" y="339" class="desc">soft_delete_in চিহ্ন বসায়; কোয়েরি</text>
  <text x="838" y="355" class="desc">সহ বা শুধু মোছা দেখাতে পারে।</text>
  <text x="838" y="383" class="api">.with_trashed()/.only_trashed()</text>

  <!-- ========== সারি ৩: ইনডেক্স ও ড্রাইভার ========== -->
  <rect x="40" y="414" width="240" height="142" rx="10" class="card"/>
  <rect x="58" y="430" width="36" height="36" rx="8" class="ico"/>
  <text x="76" y="454" text-anchor="middle" class="ico-t">L</text>
  <text x="104" y="446" class="name">ইনডেক্স জীবনচক্র</text>
  <text x="104" y="464" class="desc">তৈরি / রিফ্রেশ / মোছা / পুনর্নির্মাণ</text>
  <text x="58" y="496" class="desc">reindex অর্থ ইঞ্জিনভেদে বদলায়:</text>
  <text x="58" y="512" class="desc">মেমোরি লক্ষ্য বদলায়; ES _reindex।</text>
  <text x="58" y="540" class="api">create_index · flush · reindex</text>

  <rect x="300" y="414" width="240" height="142" rx="10" class="card"/>
  <rect x="318" y="430" width="36" height="36" rx="8" class="ico"/>
  <text x="336" y="454" text-anchor="middle" class="ico-t">B</text>
  <text x="364" y="446" class="name">বাল্ক ও নিখুঁত ডিলিট</text>
  <text x="364" y="464" class="desc">কম রাউন্ড-ট্রিপ</text>
  <text x="318" y="496" class="desc">update_bulk / delete_bulk</text>
  <text x="318" y="512" class="desc">ডিফল্টে একটি একটি, ওভাররাইডযোগ্য।</text>
  <text x="318" y="540" class="api">delete_in(index, ids)</text>

  <rect x="560" y="414" width="240" height="142" rx="10" class="card"/>
  <rect x="578" y="430" width="36" height="36" rx="8" class="ico"/>
  <text x="596" y="454" text-anchor="middle" class="ico-t">D</text>
  <text x="624" y="446" class="name">প্লাগেবল ড্রাইভার</text>
  <text x="624" y="464" class="desc">৮টি ব্যাকএন্ড</text>
  <text x="578" y="496" class="desc">collection · elasticsearch ·</text>
  <text x="578" y="512" class="desc">meilisearch · typesense · algolia</text>
  <text x="578" y="528" class="desc">database · xunsearch · null</text>

  <rect x="820" y="414" width="240" height="142" rx="10" class="card"/>
  <rect x="838" y="430" width="36" height="36" rx="8" class="ico"/>
  <text x="856" y="454" text-anchor="middle" class="ico-t">#</text>
  <text x="884" y="446" class="name">নিরাপত্তার সীমা</text>
  <text x="884" y="464" class="desc">যাচাই + এস্কেপ</text>
  <text x="838" y="496" class="desc">ইনডেক্স নাম → validate_index_name</text>
  <text x="838" y="512" class="desc">তারপর RFC 3986 শতাংশ-এনকোড → URL।</text>
  <text x="838" y="540" class="api">percent_encode(index)</text>

  <!-- নিচের পাদটীকা: পোষা প্রাণী -->
  <text x="550" y="584" text-anchor="middle" class="desc">আট ড্রাইভার, এক চুক্তি — ব্যাকএন্ড বদলাতে শুধু ScoutConfig, ব্যবসায়িক কোড নয়।</text>
</svg>
