<svg xmlns="http://www.w3.org/2000/svg" viewBox="0 0 1100 590" font-family="system-ui, -apple-system, 'Segoe UI', sans-serif">
  <defs>
    <style>
      .title { font-size: 26px; font-weight: 700; fill: #0f172a; }
      .sub   { font-size: 13px; fill: #64748b; }
      .card  { fill: #ffffff; stroke: #e2e8f0; stroke-width: 1.5; rx: 10; }
      .card:hover { stroke: #2563eb; }
      .name  { font-size: 15px; font-weight: 600; fill: #0f172a; }
      .desc  { font-size: 12px; fill: #475569; }
      .api   { font-size: 10.5px; fill: #2563eb; font-family: ui-monospace, SFMono-Regular, Menlo, monospace; }
      .ico   { fill: #dbeafe; stroke: #2563eb; stroke-width: 1.2; rx: 6; }
    </style>
  </defs>

  <text x="550" y="42" text-anchor="middle" class="title">功能特性</text>
  <text x="550" y="66" text-anchor="middle" class="sub">从查询构建到驱动切换 — 全部通过统一 Engine trait 暴露</text>

  <!-- 1 链式查询 -->
  <rect x="40" y="100" width="330" height="140" class="card"/>
  <rect x="60" y="118" width="40" height="40" class="ico"/>
  <text x="80" y="144" text-anchor="middle" fill="#2563eb" font-size="18" font-weight="700">Q</text>
  <text x="115" y="136" class="name">链式查询构建</text>
  <text x="115" y="156" class="desc">一行代码拼出完整查询</text>
  <text x="60" y="206" class="api">SearchBuilder::new(&#34;rust&#34;)</text>
  <text x="60" y="222" class="api">  .within(&#34;books&#34;).take(10)</text>

  <!-- 2 全文搜索 -->
  <rect x="385" y="100" width="330" height="140" class="card"/>
  <rect x="405" y="118" width="40" height="40" class="ico"/>
  <text x="425" y="144" text-anchor="middle" fill="#2563eb" font-size="18" font-weight="700">T</text>
  <text x="460" y="136" class="name">全文搜索</text>
  <text x="460" y="156" class="desc">内存驱动子串匹配 · ES 驱动</text>
  <text x="460" y="172" class="desc">query_string 语法</text>
  <text x="405" y="206" class="api">query: &#34;rust&#34; / &#34;type:book&#34;</text>

  <!-- 3 精确过滤 -->
  <rect x="730" y="100" width="330" height="140" class="card"/>
  <rect x="750" y="118" width="40" height="40" class="ico"/>
  <text x="770" y="144" text-anchor="middle" fill="#2563eb" font-size="18" font-weight="700">=</text>
  <text x="805" y="136" class="name">精确过滤</text>
  <text x="805" y="156" class="desc">字段等值匹配（ES 映射 term）</text>
  <text x="750" y="206" class="api">.where_field(&#34;status&#34;, &#34;published&#34;)</text>

  <!-- 4 集合过滤 -->
  <rect x="40" y="255" width="330" height="140" class="card"/>
  <rect x="60" y="273" width="40" height="40" class="ico"/>
  <text x="80" y="299" text-anchor="middle" fill="#2563eb" font-size="18" font-weight="700">∈</text>
  <text x="115" y="291" class="name">集合过滤</text>
  <text x="115" y="311" class="desc">IN / NOT IN 语义（ES 映射</text>
  <text x="115" y="327" class="desc">terms / must_not terms）</text>
  <text x="60" y="361" class="api">.where_in(&#34;tags&#34;, [&#34;a&#34;, &#34;b&#34;])</text>
  <text x="60" y="377" class="api">.where_not_in(&#34;tags&#34;, [&#34;x&#34;])</text>

  <!-- 5 排序 -->
  <rect x="385" y="255" width="330" height="140" class="card"/>
  <rect x="405" y="273" width="40" height="40" class="ico"/>
  <text x="425" y="299" text-anchor="middle" fill="#2563eb" font-size="18" font-weight="700">⇅</text>
  <text x="460" y="291" class="name">多字段排序</text>
  <text x="460" y="311" class="desc">支持 asc / desc，可叠加</text>
  <text x="405" y="361" class="api">.order_by(&#34;created_at&#34;, true)</text>

  <!-- 6 分页 -->
  <rect x="730" y="255" width="330" height="140" class="card"/>
  <rect x="750" y="273" width="40" height="40" class="ico"/>
  <text x="770" y="299" text-anchor="middle" fill="#2563eb" font-size="18" font-weight="700">P</text>
  <text x="805" y="291" class="name">分页</text>
  <text x="805" y="311" class="desc">偏移截取 + 页码分页</text>
  <text x="750" y="361" class="api">.take(10).skip(20)</text>
  <text x="750" y="377" class="api">engine.paginate(&amp;b, page, per)</text>

  <!-- 7 多索引 -->
  <rect x="40" y="410" width="330" height="140" class="card"/>
  <rect x="60" y="428" width="40" height="40" class="ico"/>
  <text x="80" y="454" text-anchor="middle" fill="#2563eb" font-size="18" font-weight="700">I</text>
  <text x="115" y="446" class="name">多索引</text>
  <text x="115" y="466" class="desc">文档级 index 字段，默认</text>
  <text x="115" y="482" class="desc">&#34;default&#34;，写入查询可指定</text>
  <text x="60" y="516" class="api">SearchDocument.index / builder.within()</text>

  <!-- 8 索引生命周期 -->
  <rect x="385" y="410" width="330" height="140" class="card"/>
  <rect x="405" y="428" width="40" height="40" class="ico"/>
  <text x="425" y="454" text-anchor="middle" fill="#2563eb" font-size="18" font-weight="700">L</text>
  <text x="460" y="446" class="name">索引生命周期</text>
  <text x="460" y="466" class="desc">创建 / 刷新 / 删除索引</text>
  <text x="405" y="516" class="api">create_index · flush · delete_index</text>

  <!-- 9 可插拔驱动 -->
  <rect x="730" y="410" width="330" height="140" class="card"/>
  <rect x="750" y="428" width="40" height="40" class="ico"/>
  <text x="770" y="454" text-anchor="middle" fill="#2563eb" font-size="18" font-weight="700">D</text>
  <text x="805" y="446" class="name">可插拔驱动</text>
  <text x="805" y="466" class="desc">换后端只改配置不改代码</text>
  <text x="750" y="516" class="api">ScoutConfig::elasticsearch(host, key)</text>
</svg>
