<svg xmlns="http://www.w3.org/2000/svg" viewBox="0 0 1100 600" font-family="system-ui, -apple-system, 'Segoe UI', sans-serif" role="img" aria-labelledby="featTitle">
  <title id="featTitle">rust-scout 功能设计：12 项能力，全部经统一 Engine trait 暴露</title>
  <defs>
    <style>
      .title { font-size: 26px; font-weight: 700; fill: #0f172a; }
      .sub   { font-size: 13px; fill: #64748b; }
      .card  { fill: #ffffff; stroke: #e2e8f0; stroke-width: 1.5; }
      .name  { font-size: 14px; font-weight: 600; fill: #0f172a; }
      .desc  { font-size: 11px; fill: #475569; }
      .api   { font-size: 10px; fill: #2563eb; font-family: ui-monospace, SFMono-Regular, Menlo, monospace; }
      .ico   { fill: #dbeafe; stroke: #2563eb; stroke-width: 1.2; }
      .ico-t { font-size: 17px; font-weight: 700; fill: #2563eb; }
      .n     { font-size: 10px; font-weight: 700; fill: #94a3b8; }
    </style>
  </defs>

  <text x="550" y="42" text-anchor="middle" class="title">功能设计</text>
  <text x="550" y="66" text-anchor="middle" class="sub">12 项能力 —— 查询、过滤、排序、分页、生命周期、批量、多驱动、安全边界，全部由统一 Engine trait 暴露</text>

  <!-- ========== 第 1 行：查询构建 ========== -->
  <rect x="40" y="100" width="240" height="142" rx="10" class="card"/>
  <rect x="58" y="116" width="36" height="36" rx="8" class="ico"/>
  <text x="76" y="140" text-anchor="middle" class="ico-t">Q</text>
  <text x="104" y="132" class="name">链式查询构建</text>
  <text x="104" y="150" class="desc">查询与执行分离</text>
  <text x="58" y="182" class="desc">先拼装 SearchBuilder，</text>
  <text x="58" y="198" class="desc">再一次 async 执行。</text>
  <text x="58" y="226" class="api">SearchBuilder::new(q)</text>

  <rect x="300" y="100" width="240" height="142" rx="10" class="card"/>
  <rect x="318" y="116" width="36" height="36" rx="8" class="ico"/>
  <text x="336" y="140" text-anchor="middle" class="ico-t">T</text>
  <text x="364" y="132" class="name">全文搜索</text>
  <text x="364" y="150" class="desc">空串 = 匹配全部</text>
  <text x="318" y="182" class="desc">ES 走 query_string 语法</text>
  <text x="318" y="198" class="desc">（字段:值 / 模糊 / AND）</text>
  <text x="318" y="226" class="api">query: "rust" · "title:rust"</text>

  <rect x="560" y="100" width="240" height="142" rx="10" class="card"/>
  <rect x="578" y="116" width="36" height="36" rx="8" class="ico"/>
  <text x="596" y="140" text-anchor="middle" class="ico-t">=</text>
  <text x="624" y="132" class="name">精确过滤</text>
  <text x="624" y="150" class="desc">等值匹配</text>
  <text x="578" y="182" class="desc">数字 / 布尔 / 字符串按</text>
  <text x="578" y="198" class="desc">JSON 类型严格比较。</text>
  <text x="578" y="226" class="api">.where_field("status", "ok")</text>

  <rect x="820" y="100" width="240" height="142" rx="10" class="card"/>
  <rect x="838" y="116" width="36" height="36" rx="8" class="ico"/>
  <text x="856" y="140" text-anchor="middle" class="ico-t">∈</text>
  <text x="884" y="132" class="name">集合过滤</text>
  <text x="884" y="150" class="desc">IN / NOT IN</text>
  <text x="838" y="182" class="desc">可叠加；空集合的 IN</text>
  <text x="838" y="198" class="desc">匹配不到任何文档。</text>
  <text x="838" y="226" class="api">.where_in("tags", [..])</text>

  <!-- ========== 第 2 行：结果处理 ========== -->
  <rect x="40" y="257" width="240" height="142" rx="10" class="card"/>
  <rect x="58" y="273" width="36" height="36" rx="8" class="ico"/>
  <text x="76" y="297" text-anchor="middle" class="ico-t">⇅</text>
  <text x="104" y="289" class="name">多字段排序</text>
  <text x="104" y="307" class="desc">asc / desc 可叠加</text>
  <text x="58" y="339" class="desc">跨类型比较有确定顺序；</text>
  <text x="58" y="355" class="desc">无排序时按 id 稳定输出。</text>
  <text x="58" y="383" class="api">.order_by("created_at", true)</text>

  <rect x="300" y="257" width="240" height="142" rx="10" class="card"/>
  <rect x="318" y="273" width="36" height="36" rx="8" class="ico"/>
  <text x="336" y="297" text-anchor="middle" class="ico-t">P</text>
  <text x="364" y="289" class="name">分页</text>
  <text x="364" y="307" class="desc">偏移 + 页码两种</text>
  <text x="318" y="339" class="desc">take / skip 做偏移截取；</text>
  <text x="318" y="355" class="desc">paginate 按页码取（从 1 起）。</text>
  <text x="318" y="383" class="api">engine.paginate(&amp;b, page, per)</text>

  <rect x="560" y="257" width="240" height="142" rx="10" class="card"/>
  <rect x="578" y="273" width="36" height="36" rx="8" class="ico"/>
  <text x="596" y="297" text-anchor="middle" class="ico-t">I</text>
  <text x="624" y="289" class="name">多索引</text>
  <text x="624" y="307" class="desc">文档级路由</text>
  <text x="578" y="339" class="desc">写入按 doc.index 归档，</text>
  <text x="578" y="355" class="desc">缺省落在 "default" 索引。</text>
  <text x="578" y="383" class="api">.within("books") · doc.index</text>

  <rect x="820" y="257" width="240" height="142" rx="10" class="card"/>
  <rect x="838" y="273" width="36" height="36" rx="8" class="ico"/>
  <text x="856" y="297" text-anchor="middle" class="ico-t">S</text>
  <text x="884" y="289" class="name">软删除</text>
  <text x="884" y="307" class="desc">保留字段 __soft_deleted</text>
  <text x="838" y="339" class="desc">默认排除；查询可选择</text>
  <text x="838" y="355" class="desc">带上或只看已删除。</text>
  <text x="838" y="383" class="api">.with_trashed()/.only_trashed()</text>

  <!-- ========== 第 3 行：索引与驱动 ========== -->
  <rect x="40" y="414" width="240" height="142" rx="10" class="card"/>
  <rect x="58" y="430" width="36" height="36" rx="8" class="ico"/>
  <text x="76" y="454" text-anchor="middle" class="ico-t">L</text>
  <text x="104" y="446" class="name">索引生命周期</text>
  <text x="104" y="464" class="desc">建 / 刷新 / 删 / 重建</text>
  <text x="58" y="496" class="desc">reindex 语义因引擎而异：</text>
  <text x="58" y="512" class="desc">内存替换目标，ES 走 _reindex。</text>
  <text x="58" y="540" class="api">create_index · flush · reindex</text>

  <rect x="300" y="414" width="240" height="142" rx="10" class="card"/>
  <rect x="318" y="430" width="36" height="36" rx="8" class="ico"/>
  <text x="336" y="454" text-anchor="middle" class="ico-t">B</text>
  <text x="364" y="446" class="name">批量与精确删除</text>
  <text x="364" y="464" class="desc">减少往返</text>
  <text x="318" y="496" class="desc">update_bulk / delete_bulk</text>
  <text x="318" y="512" class="desc">有默认逐条实现，可覆写。</text>
  <text x="318" y="540" class="api">delete_in(index, ids)</text>

  <rect x="560" y="414" width="240" height="142" rx="10" class="card"/>
  <rect x="578" y="430" width="36" height="36" rx="8" class="ico"/>
  <text x="596" y="454" text-anchor="middle" class="ico-t">D</text>
  <text x="624" y="446" class="name">可插拔驱动</text>
  <text x="624" y="464" class="desc">8 种后端</text>
  <text x="578" y="496" class="desc">collection · elasticsearch ·</text>
  <text x="578" y="512" class="desc">meilisearch · typesense · algolia</text>
  <text x="578" y="540" class="api">ScoutConfig::meilisearch(..)</text>

  <rect x="820" y="414" width="240" height="142" rx="10" class="card"/>
  <rect x="838" y="430" width="36" height="36" rx="8" class="ico"/>
  <text x="856" y="454" text-anchor="middle" class="ico-t">#</text>
  <text x="884" y="446" class="name">安全边界</text>
  <text x="884" y="464" class="desc">校验 + 转义</text>
  <text x="838" y="496" class="desc">索引名先过 validate_index_name</text>
  <text x="838" y="512" class="desc">再按 RFC 3986 百分号编码进 URL。</text>
  <text x="838" y="540" class="api">percent_encode(index)</text>

  <!-- 底部脚注：宠物 -->
  <text x="550" y="584" text-anchor="middle" class="desc">八种驱动共用一份契约 —— 换后端只改 ScoutConfig，业务代码一行不动。</text>
</svg>
